<?xml version="1.0" encoding="UTF-8" standalone="no"?>
<!-- Created with Inkscape (http://www.inkscape.org/) -->

<svg
   xmlns:dc="http://purl.org/dc/elements/1.1/"
   xmlns:cc="http://creativecommons.org/ns#"
   xmlns:rdf="http://www.w3.org/1999/02/22-rdf-syntax-ns#"
   xmlns:svg="http://www.w3.org/2000/svg"
   xmlns="http://www.w3.org/2000/svg"
   xmlns:xlink="http://www.w3.org/1999/xlink"
   xmlns:sodipodi="http://sodipodi.sourceforge.net/DTD/sodipodi-0.dtd"
   xmlns:inkscape="http://www.inkscape.org/namespaces/inkscape"
   width="64"
   height="32"
   id="svg2"
   version="1.1"
   inkscape:version="0.48.4 r9939"
   inkscape:export-filename="/home/etienne/Documents/pointer-1.png"
   inkscape:export-xdpi="90"
   inkscape:export-ydpi="90"
   sodipodi:docname="ok-icon.svg">
  <defs
     id="defs4">
    <linearGradient
       id="linearGradient3895">
      <stop
         id="stop3897"
         offset="0"
         style="stop-color:#03ff00;stop-opacity:0.12738854;" />
      <stop
         id="stop3899"
         offset="1"
         style="stop-color:#00ff10;stop-opacity:0;" />
    </linearGradient>
    <linearGradient
       id="linearGradient3879">
      <stop
         style="stop-color:#ff0000;stop-opacity:0.12738854;"
         offset="0"
         id="stop3881" />
      <stop
         style="stop-color:#ff0000;stop-opacity:0;"
         offset="1"
         id="stop3883" />
    </linearGradient>
    <radialGradient
       inkscape:collect="always"
       xlink:href="#linearGradient3879"
       id="radialGradient3885"
       cx="16"
       cy="16"
       fx="16"
       fy="16"
       r="16"
       gradientUnits="userSpaceOnUse" />
    <radialGradient
       inkscape:collect="always"
       xlink:href="#linearGradient3895"
       id="radialGradient3893"
       cx="16"
       cy="16"
       fx="16"
       fy="16"
       r="16"
       gradientUnits="userSpaceOnUse" />
  </defs>
  <sodipodi:namedview
     id="base"
     pagecolor="#ffffff"
     bordercolor="#666666"
     borderopacity="1.0"
     inkscape:pageopacity="0.0"
     inkscape:pageshadow="2"
     inkscape:zoom="16"
     inkscape:cx="12.857149"
     inkscape:cy="18.688678"
     inkscape:document-units="px"
     inkscape:current-layer="on"
     showgrid="true"
     inkscape:window-width="1920"
     inkscape:window-height="1021"
     inkscape:window-x="0"
     inkscape:window-y="27"
     inkscape:window-maximized="1"
     inkscape:snap-bbox="true"
     inkscape:snap-page="true">
    <inkscape:grid
       type="xygrid"
       id="grid2985"
       empspacing="8"
       visible="true"
       enabled="true"
       snapvisiblegridlinesonly="true"
       spacingx="1px" />
  </sodipodi:namedview>
  <metadata
     id="metadata7">
    <rdf:RDF>
      <cc:Work
         rdf:about="">
        <dc:format>image/svg+xml</dc:format>
        <dc:type
           rdf:resource="http://purl.org/dc/dcmitype/StillImage" />
        <dc:title></dc:title>
      </cc:Work>
    </rdf:RDF>
  </metadata>
  <g
     inkscape:groupmode="layer"
     id="layer3"
     inkscape:label="Fond"
     transform="translate(0,-96)"
     sodipodi:insensitive="true">
    <rect
       style="fill:#080914;fill-opacity:1;stroke:none"
       id="rect3791"
       width="64"
       height="32"
       x="0"
       y="96" />
  </g>
  <g
     inkscape:label="Calque 1"
     inkscape:groupmode="layer"
     id="layer1"
     transform="translate(0,-1020.3622)">
    <g
       id="on"
       inkscape:export-xdpi="135"
       inkscape:export-ydpi="135">
      <path
         inkscape:connector-curvature="0"
         id="path3809"
         d="m 11,1028.3622 c -0.72947,0 -1.3864477,0.3616 -1.875,0.8438 -0.4885523,0.4821 -0.8485301,1.0944 -1.15625,1.8125 C 7.3533102,1032.4545 7,1034.3134 7,1036.3622 c 0,2.0488 0.3533102,3.9077 0.96875,5.3438 0.3077199,0.718 0.6676977,1.3303 1.15625,1.8125 0.4885523,0.4821 1.14553,0.8437 1.875,0.8437 0.72947,0 1.386448,-0.3616 1.875,-0.8437 0.488552,-0.4822 0.84853,-1.0945 1.15625,-1.8125 0.61544,-1.4361 0.96875,-3.295 0.96875,-5.3438 0,-2.0488 -0.35331,-3.9077 -0.96875,-5.3437 -0.30772,-0.7181 -0.667698,-1.3304 -1.15625,-1.8125 -0.488552,-0.4822 -1.14553,-0.8438 -1.875,-0.8438 z m 0,2 c 0.09896,0 0.239472,0.024 0.46875,0.25 0.229278,0.2263 0.483577,0.6388 0.71875,1.1875 0.470347,1.0975 0.8125,2.7453 0.8125,4.5625 0,1.8172 -0.342153,3.465 -0.8125,4.5625 -0.235173,0.5487 -0.489472,0.9612 -0.71875,1.1875 -0.229278,0.2263 -0.369793,0.25 -0.46875,0.25 -0.09896,0 -0.239472,-0.024 -0.46875,-0.25 -0.229278,-0.2263 -0.483577,-0.6388 -0.71875,-1.1875 C 9.3421534,1039.8272 9,1038.1794 9,1036.3622 c 0,-1.8172 0.3421534,-3.465 0.8125,-4.5625 0.235173,-0.5487 0.489472,-0.9612 0.71875,-1.1875 0.229278,-0.2263 0.369793,-0.25 0.46875,-0.25 z"
         style="font-size:medium;font-style:normal;font-variant:normal;font-weight:normal;font-stretch:normal;text-indent:0;text-align:start;text-decoration:none;line-height:normal;letter-spacing:normal;word-spacing:normal;text-transform:none;direction:ltr;block-progression:tb;writing-mode:lr-tb;text-anchor:start;baseline-shift:baseline;color:#000000;fill:#00ff00;fill-opacity:1;fill-rule:nonzero;stroke:none;stroke-width:2;marker:none;visibility:visible;display:inline;overflow:visible;enable-background:accumulate;font-family:Sans;-inkscape-font-specification:Sans" />
      <path
         sodipodi:nodetypes="ccccccccccc"
         inkscape:connector-curvature="0"
         id="path3811"
         d="m 18,1028.3622 -2,0 0,16 2,0 0,-10.5 4,10.5 2,0 0,-16 -2,0 0,10.5 z"
         style="font-size:medium;font-style:normal;font-variant:normal;font-weight:normal;font-stretch:normal;text-indent:0;text-align:start;text-decoration:none;line-height:normal;letter-spacing:normal;word-spacing:normal;text-transform:none;direction:ltr;block-progression:tb;writing-mode:lr-tb;text-anchor:start;baseline-shift:baseline;color:#000000;fill:#00ff00;fill-opacity:1;stroke:none;stroke-width:2;marker:none;visibility:visible;display:inline;overflow:visible;enable-background:accumulate;font-family:Sans;-inkscape-font-specification:Sans" />
      <rect
         transform="translate(0,1020.3622)"
         y="0"
         x="0"
         height="32"
         width="32"
         id="rect3821"
         style="fill:url(#radialGradient3893);stroke:none;fill-opacity:1.0" />
    </g>
    <g
       id="off"
       transform="translate(32,0)"
       inkscape:export-xdpi="135"
       inkscape:export-ydpi="135">
      <path
         inkscape:connector-curvature="0"
         id="path3809-2"
         d="m 9,1028.3622 c -0.72947,0 -1.3864477,0.3616 -1.875,0.8438 -0.4885523,0.4821 -0.8485301,1.0944 -1.15625,1.8125 C 5.3533102,1032.4545 5,1034.3134 5,1036.3622 c 0,2.0488 0.3533102,3.9077 0.96875,5.3438 0.3077199,0.718 0.6676977,1.3303 1.15625,1.8125 0.4885523,0.4821 1.14553,0.8437 1.875,0.8437 0.72947,0 1.386448,-0.3616 1.875,-0.8437 0.488552,-0.4822 0.84853,-1.0945 1.15625,-1.8125 0.61544,-1.4361 0.96875,-3.295 0.96875,-5.3438 0,-2.0488 -0.35331,-3.9077 -0.96875,-5.3437 -0.30772,-0.7181 -0.667698,-1.3304 -1.15625,-1.8125 -0.488552,-0.4822 -1.14553,-0.8438 -1.875,-0.8438 z m 0,2 c 0.09896,0 0.239472,0.024 0.46875,0.25 0.229278,0.2263 0.483577,0.6388 0.71875,1.1875 0.470347,1.0975 0.8125,2.7453 0.8125,4.5625 0,1.8172 -0.342153,3.465 -0.8125,4.5625 -0.235173,0.5487 -0.489472,0.9612 -0.71875,1.1875 -0.229278,0.2263 -0.369793,0.25 -0.46875,0.25 -0.09896,0 -0.239472,-0.024 -0.46875,-0.25 -0.229278,-0.2263 -0.483577,-0.6388 -0.71875,-1.1875 C 7.3421534,1039.8272 7,1038.1794 7,1036.3622 c 0,-1.8172 0.3421534,-3.465 0.8125,-4.5625 0.235173,-0.5487 0.489472,-0.9612 0.71875,-1.1875 0.229278,-0.2263 0.369793,-0.25 0.46875,-0.25 z"
         style="font-size:medium;font-style:normal;font-variant:normal;font-weight:normal;font-stretch:normal;text-indent:0;text-align:start;text-decoration:none;line-height:normal;letter-spacing:normal;word-spacing:normal;text-transform:none;direction:ltr;block-progression:tb;writing-mode:lr-tb;text-anchor:start;baseline-shift:baseline;color:#000000;fill:#ff0000;fill-opacity:1;fill-rule:nonzero;stroke:none;stroke-width:2;marker:none;visibility:visible;display:inline;overflow:visible;enable-background:accumulate;font-family:Sans;-inkscape-font-specification:Sans" />
      <rect
         transform="translate(0,1020.3622)"
         y="0"
         x="0"
         height="32"
         width="32"
         id="rect3821-7"
         style="fill:url(#radialGradient3885);stroke:none;fill-opacity:1" />
      <path
         style="font-size:medium;font-style:normal;font-variant:normal;font-weight:normal;font-stretch:normal;text-indent:0;text-align:start;text-decoration:none;line-height:normal;letter-spacing:normal;word-spacing:normal;text-transform:none;direction:ltr;block-progression:tb;writing-mode:lr-tb;text-anchor:start;baseline-shift:baseline;color:#000000;fill:#ff0000;fill-opacity:1;stroke:none;stroke-width:2;marker:none;visibility:visible;display:inline;overflow:visible;enable-background:accumulate;font-family:Sans;-inkscape-font-specification:Sans"
         d="m 14,1028.3622 0,1 0,7 0,1 0,7 2,0 0,-7 4,0 0,-2 -4,0 0,-5 4,0 0,-2 -5,0 -1,0 z"
         id="path3855"
         inkscape:connector-curvature="0" />
      <path
         style="font-size:medium;font-style:normal;font-variant:normal;font-weight:normal;font-stretch:normal;text-indent:0;text-align:start;text-decoration:none;line-height:normal;letter-spacing:normal;word-spacing:normal;text-transform:none;direction:ltr;block-progression:tb;writing-mode:lr-tb;text-anchor:start;baseline-shift:baseline;color:#000000;fill:#ff0000;fill-opacity:1;stroke:none;stroke-width:2;marker:none;visibility:visible;display:inline;overflow:visible;enable-background:accumulate;font-family:Sans;-inkscape-font-specification:Sans"
         d="m 21,1028.3622 0,1 0,7 0,1 0,7 2,0 0,-7 4,0 0,-2 -4,0 0,-5 4,0 0,-2 -5,0 -1,0 z"
         id="path3855-9"
         inkscape:connector-curvature="0" />
    </g>
  </g>
</svg>
